# xmcd
#
# Track frame offsets:
#	150
#	9727
#	29068
#	44672
#	56906
#	71510
#	89449
#	106109
#	110025
#	127004
#	144778
#	160835
#	180349
#	196776
#	208858
#	214627
#	233861
#	252963
#
# Disc length: 3529 seconds
#
# Revision: 0
# Processed by: cddbd v1.5.2PL0 Copyright (c) Steve Scherf et al.
# Submitted via: FairStars CD Ripper 1.90
#
DISCID=060dc712
DTITLE=Dr Will - Speak Of The Devil 
DYEAR=2010
DGENRE=Blues
TTITLE0=Voodoo Barbecue
TTITLE1=Limousines and Whisky Queens
TTITLE2=Zip! Zip! Undo Me!
TTITLE3=Run! Run!
TTITLE4=No Shelter
TTITLE5=Hoodoo Moon
TTITLE6=	I Can't Sing The Blues
TTITLE7=The Voodoo Guru Speaks
TTITLE8=Speak Of The Devil
TTITLE9=Laughing At The Clown
TTITLE10=Ain't Nobody's Fault
TTITLE11=Fonky Ol' Tunes
TTITLE12=She Don't Hurt
TTITLE13=Born Angry
TTITLE14=Overture
TTITLE15=Hoopin' and Howlin'
TTITLE16=Voodoo Barbecue (Reprise)
TTITLE17=Wegwerfwerner
EXTD=
EXTT0=
EXTT1=
EXTT2=
EXTT3=
EXTT4=
EXTT5=
EXTT6=
EXTT7=
EXTT8=
EXTT9=
EXTT10=
EXTT11=
EXTT12=
EXTT13=
EXTT14=
EXTT15=
EXTT16=
EXTT17=
PLAYORDER=
